<svg id="Layer_1" data-name="Layer 1" xmlns="http://www.w3.org/2000/svg" viewBox="0 0 95.5028 66.9253">
  <g>
    <path id="fullLogo" d="M91.7457,51.2972c-4.5366-1.2355-8.745-2.4109-12.6568-3.53A33.4593,33.4593,0,0,0,24.8865,10.1009C10.0273,10.8746,1.7293,14.6635.2312,21.38-1.2243,27.8552,4.1985,34.56,16.31,41.3285A33.4591,33.4591,0,0,0,71.254,58.3013c5.8039.8651,12.11,1.5982,18.9317,2.1005a4.64,4.64,0,0,0,1.56-9.1046Z"/>
    <path id="fullLogo-2" data-name="fullLogo" d="M28.7181,42.2749c3.0367,1.3635,25.1043,10.7981,61.8081,13.4992C50.4156,44.85,35.2171,38.4985,26.7979,34.0788c-.0056-.0052-.0109-.005-.0167-.01a59.9794,59.9794,0,0,1-6.0852-3.58c-4.063-2.7811-6.0808-5.2532-5.6348-7.2659.4909-2.1729,4.2516-5.5556,10.64-6.3025-.126.1835-.256.364-.3775.5507A27.1186,27.1186,0,0,0,21.47,26.6321c.2876.2171.597.4288.9119.6459,1.3512.9226,2.9414,1.8832,4.7487,2.871A26.4752,26.4752,0,0,1,53.4638,6.4158a26.9749,26.9749,0,0,1,4.7162.4179,27.542,27.542,0,0,0-29.5728,6.5289c-.4008.41-.7824.8372-1.1551,1.2726-13.0462.3775-21.63,2.9887-22.6929,7.7631-1.05,4.6623,5.28,10.5242,16.4349,16.2988.1249.0655.2575.13.3837.1955A27.529,27.529,0,0,0,54.6684,59.3191c-.4016.0162-.8032.0271-1.2048.0271A26.4724,26.4724,0,0,1,28.7181,42.2749Z" style="fill: #fff"/>
  </g>
</svg>
