<svg id="Layer_1" data-name="Layer 1" xmlns="http://www.w3.org/2000/svg" viewBox="0 0 282.3107 71.4772">
  <g>
    <path id="fullLogo" d="M31.266,48.3876c3.9442,1.771,32.607,14.0252,80.28,17.5337C59.448,51.7328,39.7072,43.4826,28.7719,37.742c-.0073-.0068-.0141-.0065-.0217-.0132a77.92,77.92,0,0,1-7.9038-4.65c-5.2773-3.6123-7.8982-6.8232-7.3188-9.4375.6375-2.8222,5.5222-7.2158,13.82-8.186-.1636.2384-.3324.4728-.49.7153A35.2223,35.2223,0,0,0,21.8523,28.07c.3735.282.7754.557,1.1843.8389,1.7551,1.1984,3.82,2.4461,6.168,3.7291A34.3876,34.3876,0,0,1,63.4072,1.8116a35.0477,35.0477,0,0,1,6.1257.5428,35.7735,35.7735,0,0,0-38.411,8.48c-.5206.532-1.0162,1.0874-1.5,1.6528-16.9451.49-28.0942,3.882-29.4748,10.0833-1.3635,6.0557,6.8579,13.6694,21.3467,21.17.1622.0851.3344.1689.4983.2538a35.7561,35.7561,0,0,0,42.98,26.5312c-.5216.0212-1.0432.0353-1.5649.0353A34.384,34.384,0,0,1,31.266,48.3876Z"/>
    <path id="fullLogo-2" data-name="fullLogo" d="M72.59,25.68H59.6612c-.6651,0-1.002-.4966-1.002-1.5075,0-1.0463.3369-1.5606,1.002-1.5606H77.449l1.02-4.7972H59.6966a5.3146,5.3146,0,0,0-4.1942,1.871,6.5781,6.5781,0,0,0-1.64,4.4868,6.3606,6.3606,0,0,0,1.5961,4.3894,5.4054,5.4054,0,0,0,4.2385,1.9242h12.902c.6651,0,1.002.5054,1.002,1.534s-.3369,1.543-1.002,1.543H54.8551l-1.0286,4.7883H72.5986a5.3946,5.3946,0,0,0,4.2474-1.9065A6.6058,6.6058,0,0,0,78.3978,32.02a6.5844,6.5844,0,0,0-1.5606-4.4248A5.431,5.431,0,0,0,72.59,25.68Z"/>
    <path id="fullLogo-3" data-name="fullLogo" d="M107.9792,20.0135a5.1091,5.1091,0,0,0-4.3184-2.1991H83.7537v4.7972h19.9071q1.0376,0,1.0375,2.1547c0,1.41-.3458,2.1193-1.0375,2.1193H86.5421a2.7885,2.7885,0,0,0-2.7884,2.7885v8.6593H88.56v-6.65h15.101a5.1312,5.1312,0,0,0,4.3184-2.1991,7.5024,7.5024,0,0,0,1.5252-4.7175A7.64,7.64,0,0,0,107.9792,20.0135Z"/>
    <path id="fullLogo-4" data-name="fullLogo" d="M138.3586,19.6854a5.3061,5.3061,0,0,0-4.2208-1.871H120.553a5.2414,5.2414,0,0,0-4.1764,1.871,6.6044,6.6044,0,0,0-1.6228,4.4691V38.3511h4.7972V24.1634c0-1.0375.337-1.5518,1.002-1.5518h13.5848c.7005,0,1.0463.5143,1.0463,1.5606v2.873h-9.7806a2.9573,2.9573,0,0,0-2.7932,2.0041l-.9665,2.7932h13.54v6.5086h4.7884V24.1545A6.6409,6.6409,0,0,0,138.3586,19.6854Z"/>
    <path id="fullLogo-5" data-name="fullLogo" d="M249.67,19.6854a5.3062,5.3062,0,0,0-4.2208-1.871H231.8645a5.2418,5.2418,0,0,0-4.1765,1.871,6.6048,6.6048,0,0,0-1.6227,4.4691V38.3511h4.7972V24.1634c0-1.0375.337-1.5518,1.002-1.5518h13.5848c.7005,0,1.0463.5143,1.0463,1.5606v2.873h-9.7807a2.9572,2.9572,0,0,0-2.7931,2.0041l-.9666,2.7932h13.54v6.5086h4.7883V24.1545A6.6413,6.6413,0,0,0,249.67,19.6854Z"/>
    <path id="fullLogo-6" data-name="fullLogo" d="M151.9167,33.5628c-1.2769,0-1.9241-.5764-1.9241-1.7114V24.3142c0-1.144.6472-1.7026,1.9241-1.7026h14.9592l.9488-4.7972h-15.908a6.6706,6.6706,0,0,0-4.7617,1.8532,6.1662,6.1662,0,0,0-1.9508,4.6377v7.5461a6.1909,6.1909,0,0,0,1.9508,4.6553,6.7009,6.7009,0,0,0,4.7617,1.8444h15.908l-.9576-4.7883Z"/>
    <path id="fullLogo-7" data-name="fullLogo" d="M177.8537,33.5628v-3.077h16.0232V25.68H177.8537V22.6116h16.1828l.9577-4.7972H173.0565V38.3511h21.9023l-.94-4.7883Z"/>
    <path id="fullLogo-8" data-name="fullLogo" d="M219.8493,33.5628H206.6015a1.5607,1.5607,0,0,1-1.5606-1.5607V17.8144h-.0316a4.7656,4.7656,0,0,0-4.7657,4.7656V32.72a5.6293,5.6293,0,0,0,5.64,5.6307h14.9414Z"/>
    <path id="fullLogo-9" data-name="fullLogo" d="M279.7924,27.9409a5.2538,5.2538,0,0,0,2.1193-4.46,5.6568,5.6568,0,0,0-1.4365-3.9194,5.5929,5.5929,0,0,0-4.3184-1.7468H262.19a5.6212,5.6212,0,0,0-5.6213,5.6213V38.3511H276.52a5.5039,5.5039,0,0,0,5.79-5.6662A5.2084,5.2084,0,0,0,279.7924,27.9409Zm-18.4263-5.3293h14.7907c.6916,0,1.0375.5054,1.0375,1.5341s-.3459,1.534-1.0375,1.534H261.3661Zm15.11,10.9512h-15.11v-3.077h15.11c.6916,0,1.0375.5054,1.0375,1.534S277.1676,33.5628,276.476,33.5628Z"/>
  </g>
</svg>
