<svg xmlns="http://www.w3.org/2000/svg" width="1200" height="360" viewBox="0 0 1200 360" fill="none" role="img" aria-labelledby="title desc">
  <title id="title">L. O. Seman monochrome logo</title>
  <desc id="desc">Monochrome LOS monogram with a bold S and a separated Seman wordmark.</desc>

  <g transform="translate(32 20)">
    <path d="M78 68V235H157" stroke="currentColor" stroke-width="25" stroke-linecap="round" stroke-linejoin="round"/>
    <circle cx="205" cy="155" r="82" stroke="currentColor" stroke-width="18"/>
    <circle cx="205" cy="155" r="53" stroke="currentColor" stroke-opacity=".18" stroke-width="2" stroke-dasharray="7 9"/>

    <path d="M238 103C222 88 189 90 175 112C163 130 178 146 202 151C229 157 244 168 240 188C236 207 209 218 181 210C168 206 157 201 148 193"
          stroke="currentColor" stroke-width="14" stroke-linecap="round" stroke-linejoin="round"/>

    <path d="M151 194L177 149L205 155L231 173L247 132" stroke="currentColor" stroke-opacity=".5" stroke-width="5" stroke-linecap="round" stroke-linejoin="round"/>
    <circle cx="151" cy="194" r="8" fill="currentColor"/>
    <circle cx="177" cy="149" r="8" fill="currentColor"/>
    <circle cx="205" cy="155" r="9" fill="currentColor"/>
    <circle cx="231" cy="173" r="8" fill="currentColor"/>
    <circle cx="247" cy="132" r="7" fill="currentColor"/>
  </g>

  <g transform="translate(405 92)" fill="currentColor">
    <text x="0" y="94"
          font-family="Inter, Avenir Next, Segoe UI, Helvetica Neue, Arial, sans-serif"
          font-size="104" font-weight="720" letter-spacing="-4">L. O.</text>
    <text x="305" y="94"
          font-family="Inter, Avenir Next, Segoe UI, Helvetica Neue, Arial, sans-serif"
          font-size="104" font-weight="720" letter-spacing="-4">S</text>
    <text x="375" y="94"
          font-family="Inter, Avenir Next, Segoe UI, Helvetica Neue, Arial, sans-serif"
          font-size="104" font-weight="430" letter-spacing="-1.2">eman</text>
    <text x="3" y="177" opacity=".62"
          font-family="Inter, Avenir Next, Segoe UI, Helvetica Neue, Arial, sans-serif"
          font-size="24" font-weight="600" letter-spacing="5.2">OPTIMIZATION  •  MACHINE LEARNING</text>
  </g>
</svg>
