<svg xmlns="http://www.w3.org/2000/svg" width="512" height="512" viewBox="0 0 512 512" fill="none" role="img" aria-labelledby="title desc">
  <title id="title">L. O. Seman monogram</title>
  <desc id="desc">A compact LOS monogram for L. O. Seman, blending optimization and machine learning cues.</desc>

  <defs>
    <linearGradient id="ring" x1="72" y1="68" x2="440" y2="446" gradientUnits="userSpaceOnUse">
      <stop offset="0" stop-color="#2563EB"/>
      <stop offset="0.56" stop-color="#6D4AFF"/>
      <stop offset="1" stop-color="#8B5CF6"/>
    </linearGradient>
    <linearGradient id="route" x1="146" y1="379" x2="397" y2="149" gradientUnits="userSpaceOnUse">
      <stop offset="0" stop-color="#14B8A6"/>
      <stop offset="1" stop-color="#22C55E"/>
    </linearGradient>
  </defs>

  <rect x="24" y="24" width="464" height="464" rx="112" fill="#FFFFFF"/>

  <path d="M135 126V375H251" stroke="#0B132B" stroke-width="38" stroke-linecap="round" stroke-linejoin="round"/>
  <path d="M135 249H193M135 187H173M190 375V336" stroke="#CBD5E1" stroke-width="9" stroke-linecap="round"/>

  <circle cx="326" cy="256" r="126" stroke="url(#ring)" stroke-width="28"/>
  <circle cx="326" cy="256" r="82" stroke="#E2E8F0" stroke-width="3" stroke-dasharray="11 14"/>

  <path d="M380 178C354 153 302 155 279 190C261 218 284 243 322 251C363 260 387 278 381 309C374 342 331 360 287 348C265 342 247 333 233 320"
        stroke="url(#route)" stroke-width="24" stroke-linecap="round" stroke-linejoin="round"/>

  <path d="M242 317L280 246L326 256L368 285L392 218" stroke="#94A3B8" stroke-width="8" stroke-linecap="round" stroke-linejoin="round"/>
  <path d="M280 246L368 285M326 256L392 218" stroke="#CBD5E1" stroke-width="5" stroke-linecap="round"/>
  <circle cx="242" cy="317" r="14" fill="#0F766E" stroke="#FFFFFF" stroke-width="6"/>
  <circle cx="280" cy="246" r="14" fill="#2563EB" stroke="#FFFFFF" stroke-width="6"/>
  <circle cx="326" cy="256" r="16" fill="#6D4AFF" stroke="#FFFFFF" stroke-width="6"/>
  <circle cx="368" cy="285" r="14" fill="#7C3AED" stroke="#FFFFFF" stroke-width="6"/>
  <circle cx="392" cy="218" r="13" fill="#14B8A6" stroke="#FFFFFF" stroke-width="6"/>
</svg>
