<?xml version="1.0" encoding="UTF-8" standalone="no"?>
<!DOCTYPE svg PUBLIC "-//W3C//DTD SVG 1.1//EN" "http://www.w3.org/Graphics/SVG/1.1/DTD/svg11.dtd">
<svg width="100%" height="100%" viewBox="0 0 1200 800" version="1.1" xmlns="http://www.w3.org/2000/svg" xmlns:xlink="http://www.w3.org/1999/xlink" xml:space="preserve" xmlns:serif="http://www.serif.com/" style="fill-rule:evenodd;clip-rule:evenodd;">
    <rect x="0" y="0" width="1200" height="800" style="fill:rgb(254,254,254);"/>
    <g transform="matrix(1,0,0,1,600,40)">
        <text x="-232.945px" y="0px" style="font-family:'Helvetica-Bold', 'Helvetica';font-weight:700;font-size:24px;fill:rgb(44,62,80);">Federated Consensus <tspan x="23.578px 40.91px " y="0px 0px ">AD</tspan>MM Framework</text>
    </g>
    <g transform="matrix(1,0,0,1,600,65)">
        <g transform="matrix(14,0,0,14,157.452,0)">
        </g>
        <text x="-157.452px" y="0px" style="font-family:'Helvetica-Oblique', 'Helvetica';font-style:italic;font-size:14px;fill:rgb(127,140,141);">Not ready for production use, classrom usage only<tspan x="153.563px " y="0px ">.</tspan></text>
    </g>
    <g id="global-zone">
        <path d="M750,165L750,315C750,323.279 743.279,330 735,330L465,330C456.721,330 450,323.279 450,315L450,165C450,156.721 456.721,150 465,150L735,150C743.279,150 750,156.721 750,165Z" style="fill:rgb(232,244,253);stroke:rgb(52,152,219);stroke-width:2px;"/>
        <g transform="matrix(1,0,0,1,600,175)">
            <text x="-72.887px" y="0px" style="font-family:'Helvetica-Bold', 'Helvetica';font-weight:700;font-size:16px;fill:rgb(41,128,185);">Global Coordinator</text>
        </g>
        <circle cx="550" cy="220" r="25" style="fill:rgb(168,216,234);stroke:rgb(41,128,185);stroke-width:2px;"/>
        <g transform="matrix(1,0,0,1,550,227)">
            <text x="-4.67px" y="0px" style="font-family:'Helvetica-Bold', 'Helvetica';font-weight:700;font-size:12px;fill:rgb(44,62,80);">z₁</text>
        </g>
        <circle cx="600" cy="220" r="25" style="fill:rgb(168,216,234);stroke:rgb(41,128,185);stroke-width:2px;"/>
        <g transform="matrix(1,0,0,1,600,227)">
            <text x="-4.67px" y="0px" style="font-family:'Helvetica-Bold', 'Helvetica';font-weight:700;font-size:12px;fill:rgb(44,62,80);">z₂</text>
        </g>
        <circle cx="650" cy="220" r="25" style="fill:rgb(168,216,234);stroke:rgb(41,128,185);stroke-width:2px;"/>
        <g transform="matrix(1,0,0,1,650,227)">
            <text x="-4.667px" y="0px" style="font-family:'Helvetica-Bold', 'Helvetica';font-weight:700;font-size:12px;fill:rgb(44,62,80);">z₃</text>
        </g>
        <path d="M730,268L730,302C730,306.415 726.415,310 722,310L478,310C473.585,310 470,306.415 470,302L470,268C470,263.585 473.585,260 478,260L722,260C726.415,260 730,263.585 730,268Z" style="fill:rgb(255,243,205);stroke:rgb(243,156,18);stroke-width:1px;"/>
        <g transform="matrix(1,0,0,1,600,280)">
            <text x="-57.442px" y="0px" style="font-family:'Helvetica-Bold', 'Helvetica';font-weight:700;font-size:12px;fill:rgb(230,126,34);">Robust <tspan x="-13.222px -4.556px " y="0px 0px ">Ag</tspan>gregation</text>
        </g>
        <g transform="matrix(1,0,0,1,600,295)">
            <text x="-89.482px" y="0px" style="font-family:'Helvetica';font-size:10px;fill:rgb(214,137,16);">W<tspan x="-80.22px -74.658px " y="0px 0px ">ei</tspan>ghted <tspan x="-45.181px -38.687px -33.687px " y="0px 0px 0px ">Avg</tspan> • Median • <tspan x="22.612px 28.354px 31.685px " y="0px 0px 0px ">Tri</tspan>mmed Mean</text>
        </g>
    </g>
    <g id="site1">
        <path d="M210,410L210,510C210,515.519 205.519,520 200,520L60,520C54.481,520 50,515.519 50,510L50,410C50,404.481 54.481,400 60,400L200,400C205.519,400 210,404.481 210,410Z" style="fill:rgb(253,242,233);stroke:rgb(230,126,34);stroke-width:2px;"/>
        <g transform="matrix(1,0,0,1,130,420)">
            <text x="-18.676px" y="0px" style="font-family:'Helvetica-Bold', 'Helvetica';font-weight:700;font-size:14px;fill:rgb(211,84,0);">Site 1</text>
        </g>
        <rect x="70" y="435" width="30" height="20" style="fill:rgb(248,196,113);stroke:rgb(230,126,34);stroke-width:1px;"/>
        <g transform="matrix(1,0,0,1,85,448)">
            <text x="-4.727px" y="0px" style="font-family:'Helvetica';font-size:10px;fill:rgb(44,62,80);">X₁</text>
        </g>
        <rect x="110" y="435" width="30" height="20" style="fill:rgb(248,196,113);stroke:rgb(230,126,34);stroke-width:1px;"/>
        <g transform="matrix(1,0,0,1,125,448)">
            <text x="-3.892px" y="0px" style="font-family:'Helvetica';font-size:10px;fill:rgb(44,62,80);">y₁</text>
        </g>
        <circle cx="85" cy="480" r="15" style="fill:rgb(245,176,65);stroke:rgb(211,84,0);stroke-width:1px;"/>
        <g transform="matrix(1,0,0,1,85,485)">
            <text x="-3.892px" y="0px" style="font-family:'Helvetica';font-size:10px;fill:rgb(44,62,80);">x₁</text>
        </g>
        <circle cx="125" cy="480" r="15" style="fill:rgb(245,176,65);stroke:rgb(211,84,0);stroke-width:1px;"/>
        <g transform="matrix(1,0,0,1,125,485)">
            <text x="-4.172px" y="0px" style="font-family:'Helvetica';font-size:10px;fill:rgb(44,62,80);">u₁</text>
        </g>
        <rect x="150" y="440" width="40" height="15" style="fill:rgb(235,152,78);stroke:rgb(211,84,0);stroke-width:1px;"/>
        <g transform="matrix(1,0,0,1,170,450)">
            <text x="-8.445px" y="0px" style="font-family:'Helvetica';font-size:8px;fill:white;">CPU</text>
        </g>
    </g>
    <g id="site2">
        <path d="M410,410L410,510C410,515.519 405.519,520 400,520L260,520C254.481,520 250,515.519 250,510L250,410C250,404.481 254.481,400 260,400L400,400C405.519,400 410,404.481 410,410Z" style="fill:rgb(234,242,248);stroke:rgb(52,152,219);stroke-width:2px;"/>
        <g transform="matrix(1,0,0,1,330,420)">
            <text x="-18.676px" y="0px" style="font-family:'Helvetica-Bold', 'Helvetica';font-weight:700;font-size:14px;fill:rgb(41,128,185);">Site 2</text>
        </g>
        <rect x="270" y="435" width="30" height="20" style="fill:rgb(133,193,233);stroke:rgb(52,152,219);stroke-width:1px;"/>
        <g transform="matrix(1,0,0,1,285,448)">
            <text x="-4.724px" y="0px" style="font-family:'Helvetica';font-size:10px;fill:rgb(44,62,80);">X₂</text>
        </g>
        <rect x="310" y="435" width="30" height="20" style="fill:rgb(133,193,233);stroke:rgb(52,152,219);stroke-width:1px;"/>
        <g transform="matrix(1,0,0,1,325,448)">
            <text x="-3.889px" y="0px" style="font-family:'Helvetica';font-size:10px;fill:rgb(44,62,80);">y₂</text>
        </g>
        <circle cx="285" cy="480" r="15" style="fill:rgb(93,173,226);stroke:rgb(41,128,185);stroke-width:1px;"/>
        <g transform="matrix(1,0,0,1,285,485)">
            <text x="-3.889px" y="0px" style="font-family:'Helvetica';font-size:10px;fill:rgb(44,62,80);">x₂</text>
        </g>
        <circle cx="325" cy="480" r="15" style="fill:rgb(93,173,226);stroke:rgb(41,128,185);stroke-width:1px;"/>
        <g transform="matrix(1,0,0,1,325,485)">
            <text x="-4.17px" y="0px" style="font-family:'Helvetica';font-size:10px;fill:rgb(44,62,80);">u₂</text>
        </g>
        <rect x="350" y="440" width="40" height="15" style="fill:rgb(52,152,219);stroke:rgb(41,128,185);stroke-width:1px;"/>
        <g transform="matrix(1,0,0,1,370,450)">
            <text x="-8.668px" y="0px" style="font-family:'Helvetica';font-size:8px;fill:white;">GPU</text>
        </g>
    </g>
    <g id="site3">
        <path d="M1010,410L1010,510C1010,515.519 1005.52,520 1000,520L860,520C854.481,520 850,515.519 850,510L850,410C850,404.481 854.481,400 860,400L1000,400C1005.52,400 1010,404.481 1010,410Z" style="fill:rgb(244,246,246);stroke:rgb(149,165,166);stroke-width:2px;"/>
        <g transform="matrix(1,0,0,1,930,420)">
            <text x="-18.676px" y="0px" style="font-family:'Helvetica-Bold', 'Helvetica';font-weight:700;font-size:14px;fill:rgb(127,140,141);">Site 3</text>
        </g>
        <rect x="870" y="435" width="30" height="20" style="fill:rgb(189,195,199);stroke:rgb(149,165,166);stroke-width:1px;"/>
        <g transform="matrix(1,0,0,1,885,448)">
            <text x="-4.724px" y="0px" style="font-family:'Helvetica';font-size:10px;fill:rgb(44,62,80);">X₃</text>
        </g>
        <rect x="910" y="435" width="30" height="20" style="fill:rgb(189,195,199);stroke:rgb(149,165,166);stroke-width:1px;"/>
        <g transform="matrix(1,0,0,1,925,448)">
            <text x="-3.889px" y="0px" style="font-family:'Helvetica';font-size:10px;fill:rgb(44,62,80);">y₃</text>
        </g>
        <circle cx="885" cy="480" r="15" style="fill:rgb(166,172,175);stroke:rgb(127,140,141);stroke-width:1px;"/>
        <g transform="matrix(1,0,0,1,885,485)">
            <text x="-3.889px" y="0px" style="font-family:'Helvetica';font-size:10px;fill:rgb(44,62,80);">x₃</text>
        </g>
        <circle cx="925" cy="480" r="15" style="fill:rgb(166,172,175);stroke:rgb(127,140,141);stroke-width:1px;"/>
        <g transform="matrix(1,0,0,1,925,485)">
            <text x="-4.17px" y="0px" style="font-family:'Helvetica';font-size:10px;fill:rgb(44,62,80);">u₃</text>
        </g>
        <rect x="950" y="435" width="40" height="30" style="fill:rgb(127,140,141);stroke:rgb(86,101,115);stroke-width:1px;"/>
        <g transform="matrix(1,0,0,1,970,445)">
            <text x="-7.766px" y="0px" style="font-family:'AppleSymbols', 'Apple Symbols';font-size:8px;fill:white;">⫸⫸</text>
        </g>
        <g transform="matrix(1,0,0,1,970,458)">
            <text x="-6px" y="0px" style="font-family:'Helvetica';font-size:8px;fill:white;">MP</text>
        </g>
    </g>
    <g id="siteK">
        <path d="M1170,410L1170,510C1170,515.519 1165.52,520 1160,520L1060,520C1054.48,520 1050,515.519 1050,510L1050,410C1050,404.481 1054.48,400 1060,400L1160,400C1165.52,400 1170,404.481 1170,410Z" style="fill:rgb(248,249,250);stroke:rgb(108,117,125);stroke-width:2px;stroke-dasharray:5,5;"/>
        <g transform="matrix(1,0,0,1,1110,420)">
            <text x="-19.838px" y="0px" style="font-family:'Helvetica-Bold', 'Helvetica';font-weight:700;font-size:14px;fill:rgb(108,117,125);">Site K</text>
        </g>
        <circle cx="1095" cy="450" r="3" style="fill:rgb(108,117,125);"/>
        <circle cx="1110" cy="450" r="3" style="fill:rgb(108,117,125);"/>
        <circle cx="1125" cy="450" r="3" style="fill:rgb(108,117,125);"/>
        <g transform="matrix(1,0,0,1,1110,480)">
            <text x="-4.167px" y="0px" style="font-family:'Helvetica';font-size:10px;fill:rgb(108,117,125);">...</text>
        </g>
    </g>
    <path d="M210,440C303.333,360 383.333,300 450,260" style="fill:none;fill-rule:nonzero;stroke:rgb(231,76,60);stroke-width:2px;"/>
    <g transform="matrix(1,0,0,1,320,365)">
        <text x="0px" y="0px" style="font-family:'Helvetica-Bold', 'Helvetica';font-weight:700;font-size:10px;fill:rgb(192,57,43);">Local Update</text>
    </g>
    <path d="M410,420C436.667,393.333 466.667,363.333 500,330" style="fill:none;fill-rule:nonzero;stroke:rgb(39,174,96);stroke-width:2px;"/>
    <g transform="matrix(1,0,0,1,435,375)">
        <text x="0px" y="0px" style="font-family:'Helvetica-Bold', 'Helvetica';font-weight:700;font-size:10px;fill:rgb(34,153,84);">Consensus</text>
    </g>
    <path d="M750,280C796.667,333.333 830,380 850,420" style="fill:none;fill-rule:nonzero;stroke:rgb(142,68,173);stroke-width:2px;"/>
    <g transform="matrix(1,0,0,1,790,345)">
        <text x="0px" y="0px" style="font-family:'Helvetica-Bold', 'Helvetica';font-weight:700;font-size:10px;fill:rgb(125,60,152);">Global Sync</text>
    </g>
    <g id="algorithm-steps">
        <path d="M550,580L550,740C550,745.519 545.519,750 540,750L60,750C54.481,750 50,745.519 50,740L50,580C50,574.481 54.481,570 60,570L540,570C545.519,570 550,574.481 550,580Z" style="fill:rgb(247,249,252);stroke:rgb(52,73,94);stroke-width:2px;"/>
        <g transform="matrix(1,0,0,1,300,590)">
            <text x="-88.594px" y="0px" style="font-family:'Helvetica-Bold', 'Helvetica';font-weight:700;font-size:16px;fill:rgb(44,62,80);">ADMM <tspan x="-34.969px -23.414px " y="0px 0px ">Al</tspan>gorithm Steps</text>
        </g>
        <circle cx="80" cy="620" r="12" style="fill:rgb(231,76,60);"/>
        <g transform="matrix(1,0,0,1,80,625)">
            <text x="-2.781px" y="0px" style="font-family:'Helvetica-Bold', 'Helvetica';font-weight:700;font-size:10px;fill:white;">1</text>
        </g>
        <g transform="matrix(1,0,0,1,100,625)">
            <text x="0px" y="0px" style="font-family:'Helvetica-Bold', 'Helvetica';font-weight:700;font-size:12px;fill:rgb(44,62,80);">Local Updates (Parallel)</text>
        </g>
        <g transform="matrix(1,0,0,1,100,640)">
            <text x="0px" y="0px" style="font-family:'Helvetica';font-size:10px;fill:rgb(127,140,141);">x_i</text>
            <text x="15.562px" y="0px" style="font-family:'AppleSymbols', 'Apple Symbols';font-size:10px;fill:rgb(127,140,141);">←</text>
            <text x="25.298px" y="0px" style="font-family:'Helvetica';font-size:10px;fill:rgb(127,140,141);">argmin f_i(x_i) + (ρ/2)||x_i - (z - u_i)||²</text>
        </g>
        <circle cx="80" cy="665" r="12" style="fill:rgb(39,174,96);"/>
        <g transform="matrix(1,0,0,1,80,670)">
            <text x="-2.781px" y="0px" style="font-family:'Helvetica-Bold', 'Helvetica';font-weight:700;font-size:10px;fill:white;">2</text>
        </g>
        <g transform="matrix(1,0,0,1,100,670)">
            <text x="0px" y="0px" style="font-family:'Helvetica-Bold', 'Helvetica';font-weight:700;font-size:12px;fill:rgb(44,62,80);">Global Consensus (Robust)</text>
        </g>
        <g transform="matrix(1,0,0,1,100,685)">
            <text x="0px" y="0px" style="font-family:'Helvetica';font-size:10px;fill:rgb(127,140,141);">z</text>
            <text x="7.778px" y="0px" style="font-family:'AppleSymbols', 'Apple Symbols';font-size:10px;fill:rgb(127,140,141);">←</text>
            <text x="17.515px" y="0px" style="font-family:'Helvetica';font-size:10px;fill:rgb(127,140,141);">prox_g(Aggregate(x_i + u_i))</text>
        </g>
        <circle cx="80" cy="710" r="12" style="fill:rgb(142,68,173);"/>
        <g transform="matrix(1,0,0,1,80,715)">
            <text x="-2.781px" y="0px" style="font-family:'Helvetica-Bold', 'Helvetica';font-weight:700;font-size:10px;fill:white;">3</text>
        </g>
        <g transform="matrix(1,0,0,1,100,715)">
            <text x="0px" y="0px" style="font-family:'Helvetica-Bold', 'Helvetica';font-weight:700;font-size:12px;fill:rgb(44,62,80);">Dual Update</text>
        </g>
        <g transform="matrix(1,0,0,1,100,730)">
            <text x="0px" y="0px" style="font-family:'Helvetica';font-size:10px;fill:rgb(127,140,141);">u_i</text>
            <text x="16.123px" y="0px" style="font-family:'AppleSymbols', 'Apple Symbols';font-size:10px;fill:rgb(127,140,141);">←</text>
            <text x="25.859px" y="0px" style="font-family:'Helvetica';font-size:10px;fill:rgb(127,140,141);">u_i + (x_i - z)</text>
        </g>
    </g>
    <g id="enhanced-features">
        <path d="M1150,580L1150,740C1150,745.519 1145.52,750 1140,750L610,750C604.481,750 600,745.519 600,740L600,580C600,574.481 604.481,570 610,570L1140,570C1145.52,570 1150,574.481 1150,580Z" style="fill:rgb(253,246,227);stroke:rgb(243,156,18);stroke-width:2px;"/>
        <g transform="matrix(1,0,0,1,875,590)">
            <text x="-73.801px" y="0px" style="font-family:'Helvetica-Bold', 'Helvetica';font-weight:700;font-size:16px;fill:rgb(230,126,34);">Enhanced Features</text>
        </g>
        <g>
            <path d="M740,610L740,635C740,637.76 737.76,640 735,640L625,640C622.24,640 620,637.76 620,635L620,610C620,607.24 622.24,605 625,605L735,605C737.76,605 740,607.24 740,610Z" style="fill:rgb(255,243,205);stroke:rgb(255,193,7);stroke-width:1px;"/>
            <g transform="matrix(1,0,0,1,680,625)">
                <text x="-26.406px" y="0px" style="font-family:'Helvetica-Bold', 'Helvetica';font-weight:700;font-size:10px;fill:rgb(133,100,4);">Parallelism</text>
            </g>
            <path d="M880,610L880,635C880,637.76 877.76,640 875,640L765,640C762.24,640 760,637.76 760,635L760,610C760,607.24 762.24,605 765,605L875,605C877.76,605 880,607.24 880,610Z" style="fill:rgb(212,237,218);stroke:rgb(40,167,69);stroke-width:1px;"/>
            <g transform="matrix(1,0,0,1,820,625)">
                <text x="-28.616px" y="0px" style="font-family:'Helvetica-Bold', 'Helvetica';font-weight:700;font-size:10px;fill:rgb(21,87,36);">Robustness</text>
            </g>
            <path d="M1020,610L1020,635C1020,637.76 1017.76,640 1015,640L905,640C902.24,640 900,637.76 900,635L900,610C900,607.24 902.24,605 905,605L1015,605C1017.76,605 1020,607.24 1020,610Z" style="fill:rgb(204,229,255);stroke:rgb(0,123,255);stroke-width:1px;"/>
            <g transform="matrix(1,0,0,1,960,625)">
                <text x="-24.17px" y="0px" style="font-family:'Helvetica-Bold', 'Helvetica';font-weight:700;font-size:10px;fill:rgb(0,64,133);">Adaptivity</text>
            </g>
            <path d="M740,660L740,685C740,687.76 737.76,690 735,690L625,690C622.24,690 620,687.76 620,685L620,660C620,657.24 622.24,655 625,655L735,655C737.76,655 740,657.24 740,660Z" style="fill:rgb(248,215,218);stroke:rgb(220,53,69);stroke-width:1px;"/>
            <g transform="matrix(1,0,0,1,680,675)">
                <text x="-19.731px" y="0px" style="font-family:'Helvetica-Bold', 'Helvetica';font-weight:700;font-size:10px;fill:rgb(114,28,36);">Security</text>
            </g>
            <path d="M880,660L880,685C880,687.76 877.76,690 875,690L765,690C762.24,690 760,687.76 760,685L760,660C760,657.24 762.24,655 765,655L875,655C877.76,655 880,657.24 880,660Z" style="fill:rgb(226,227,229);stroke:rgb(108,117,125);stroke-width:1px;"/>
            <g transform="matrix(1,0,0,1,820,675)">
                <text x="-25.825px" y="0px" style="font-family:'Helvetica-Bold', 'Helvetica';font-weight:700;font-size:10px;fill:rgb(56,61,65);">Monitoring</text>
            </g>
            <path d="M1020,660L1020,685C1020,687.76 1017.76,690 1015,690L905,690C902.24,690 900,687.76 900,685L900,660C900,657.24 902.24,655 905,655L1015,655C1017.76,655 1020,657.24 1020,660Z" style="fill:rgb(231,232,234);stroke:rgb(111,66,193);stroke-width:1px;"/>
            <g transform="matrix(1,0,0,1,960,675)">
                <text x="-30.005px" y="0px" style="font-family:'Helvetica-Bold', 'Helvetica';font-weight:700;font-size:10px;fill:rgb(61,26,120);">Checkpoints</text>
            </g>
            <path d="M800,710L800,735C800,737.76 797.76,740 795,740L625,740C622.24,740 620,737.76 620,735L620,710C620,707.24 622.24,705 625,705L795,705C797.76,705 800,707.24 800,710Z" style="fill:rgb(255,240,245);stroke:rgb(233,30,99);stroke-width:1px;"/>
            <g transform="matrix(1,0,0,1,710,725)">
                <text x="-48.257px" y="0px" style="font-family:'Helvetica-Bold', 'Helvetica';font-weight:700;font-size:10px;fill:rgb(136,14,79);">Byzantine T<tspan x="7.124px 13.232px " y="0px 0px ">ol</tspan>erance</text>
            </g>
            <path d="M1020,710L1020,735C1020,737.76 1017.76,740 1015,740L825,740C822.24,740 820,737.76 820,735L820,710C820,707.24 822.24,705 825,705L1015,705C1017.76,705 1020,707.24 1020,710Z" style="fill:rgb(240,248,255);stroke:rgb(23,162,184);stroke-width:1px;"/>
            <g transform="matrix(1,0,0,1,920,725)">
                <g transform="matrix(10,0,0,10,25.5469,0)">
                </g>
                <g transform="matrix(10,0,0,10,28.877,0)">
                </g>
                <text x="-62.788px" y="0px" style="font-family:'Helvetica-Bold', 'Helvetica';font-weight:700;font-size:10px;fill:rgb(12,84,96);">Communication Efﬁciency</text>
            </g>
        </g>
    </g>
    <g id="performance">
        <path d="M350,108L350,132C350,136.415 346.415,140 342,140L58,140C53.585,140 50,136.415 50,132L50,108C50,103.585 53.585,100 58,100L342,100C346.415,100 350,103.585 350,108Z" style="fill:rgb(232,245,232);stroke:rgb(40,167,69);stroke-width:2px;"/>
        <g transform="matrix(1,0,0,1,200,115)">
            <g transform="matrix(12,0,0,12,44.0215,0)">
            </g>
            <g transform="matrix(12,0,0,12,48.0176,0)">
            </g>
            <text x="-62.021px" y="0px" style="font-family:'Helvetica-Bold', 'Helvetica';font-weight:700;font-size:12px;fill:rgb(21,87,36);">Performance Beneﬁts</text>
        </g>
        <g transform="matrix(1,0,0,1,200,130)">
            <text x="-91.652px" y="0px" style="font-family:'AppleSymbols', 'Apple Symbols';font-size:11px;fill:rgb(40,167,69);">↑</text>
            <text x="-83.666px" y="0px" style="font-family:'Helvetica';font-size:11px;fill:rgb(40,167,69);">Speed •</text>
            <text x="-41.895px" y="0px" style="font-family:'AppleSymbols', 'Apple Symbols';font-size:11px;fill:rgb(40,167,69);">↑</text>
            <text x="-33.908px" y="0px" style="font-family:'Helvetica';font-size:11px;fill:rgb(40,167,69);">Scalability •</text>
            <text x="25.577px" y="0px" style="font-family:'AppleSymbols', 'Apple Symbols';font-size:11px;fill:rgb(40,167,69);">↑</text>
            <text x="33.564px" y="0px" style="font-family:'Helvetica';font-size:11px;fill:rgb(40,167,69);">Robustness</text>
        </g>
    </g>
    <g id="convergence">
        <path d="M1150,108L1150,132C1150,136.415 1146.41,140 1142,140L858,140C853.585,140 850,136.415 850,132L850,108C850,103.585 853.585,100 858,100L1142,100C1146.41,100 1150,103.585 1150,108Z" style="fill:rgb(255,243,205);stroke:rgb(255,193,7);stroke-width:2px;"/>
        <g transform="matrix(1,0,0,1,1000,115)">
            <text x="-72.694px" y="0px" style="font-family:'Helvetica-Bold', 'Helvetica';font-weight:700;font-size:12px;fill:rgb(133,100,4);">Convergence Guarantees</text>
        </g>
        <g transform="matrix(1,0,0,1,1000,130)">
            <text x="-100.453px" y="0px" style="font-family:'Helvetica';font-size:11px;fill:rgb(211,158,0);">Primal-Dual • Early Stopping • <tspan x="47.87px 55.207px " y="0px 0px ">Ad</tspan>aptive ρ</text>
        </g>
    </g>
</svg>
